<?xml version="1.0" encoding="utf-8"?>
<!-- Generator: Adobe Illustrator 14.0.0, SVG Export Plug-In . SVG Version: 6.00 Build 43363)  -->
<!DOCTYPE svg PUBLIC "-//W3C//DTD SVG 1.1//EN" "http://www.w3.org/Graphics/SVG/1.1/DTD/svg11.dtd">
<svg version="1.1" id="Layer_1" xmlns="http://www.w3.org/2000/svg" xmlns:xlink="http://www.w3.org/1999/xlink" x="0px" y="0px"
	 width="210.045px" height="216px" viewBox="0 0 210.045 216" enable-background="new 0 0 210.045 216" xml:space="preserve">
<g>
	<path d="M107.86,0C48.268,0,0.002,48.56,0.002,108.149C0.002,167.734,48.268,216,107.86,216c1.61,0,3.185-0.108,4.78-0.181
		l5.935-18.677c-3.424,0.408-6.886,0.684-10.424,0.684c-49.457,0-89.973-40.227-89.973-89.677c0-49.755,40.517-90.281,89.973-90.281
		c46.773,0,84.022,29.484,84.022,74.766c0,39.654-26.899,54.386-45.124,59.263l-6.308,19.856
		c29.766-6.435,69.303-26.741,69.303-79.119C210.044,37.514,164.752,0,107.86,0z"/>
	<path d="M108.43,105.145c10.25-32.067,18.922-59.206,18.922-59.206H99.929c-13.829,41.647-29.694,81.882-22.64,101.346
		c4.932,13.591,20.939,27.021,41.497,27.021c2.125,0,4.538-0.114,7.146-0.321l6.336-19.969
		C98.57,153.731,98.268,136.935,108.43,105.145z"/>
</g>
</svg>
